<?xml version="1.0" encoding="utf-8"?>
<!-- Generator: Adobe Illustrator 16.0.0, SVG Export Plug-In . SVG Version: 6.00 Build 0)  -->
<!DOCTYPE svg PUBLIC "-//W3C//DTD SVG 1.1//EN" "http://www.w3.org/Graphics/SVG/1.1/DTD/svg11.dtd">
<svg version="1.1" id="Calque_1" xmlns="http://www.w3.org/2000/svg" xmlns:xlink="http://www.w3.org/1999/xlink" x="0px" y="0px"
	 width="512px" height="512px" viewBox="0 0 512 512" enable-background="new 0 0 512 512" xml:space="preserve">
<g>
	<path d="M103.781,220.869v158.125c0,20.246,16.905,36.717,37.685,36.717h81.369c3.737,0,6.771-2.954,6.771-6.598
		c0-3.645-3.034-6.598-6.771-6.598h-81.369c-13.313,0-24.143-10.55-24.143-23.521v-89.783h71.292h0.013h0.017h53.029h0.017h0.016
		h53.029h0.017h0.016h53.029h0.012h0.017h34.69v89.783c0,12.972-10.829,23.521-24.142,23.521h-81.366
		c-3.74,0-6.771,2.953-6.771,6.598c0,3.644,3.031,6.598,6.771,6.598h81.369c20.776,0,37.683-16.471,37.683-36.717V221.805
		l11.346-38.158c2.79-9.386,1.647-19.301-3.221-27.911c-4.869-8.611-12.854-14.853-22.491-17.571L173.35,79.362
		c-3.402-0.959-6.909-1.446-10.43-1.446c-16.707,0-31.614,10.896-36.253,26.496l-11.612,39.057c-0.5,1.681-0.294,3.484,0.574,5.018
		c0.867,1.531,2.322,2.667,4.047,3.154l221.901,62.63H110.552C106.813,214.271,103.781,217.226,103.781,220.869z M192.533,276.016
		l-28.769-48.549h37.421l28.771,48.549H192.533z M245.593,276.016l-28.768-48.549h37.42l28.771,48.549H245.593z M298.655,276.016
		l-28.772-48.549h37.424l28.769,48.549H298.655z M310.01,191.624l-36.099-10.188l48.179-45.085c0.339-0.317,0.636-0.657,0.889-1.018
		l36.099,10.188l-48.179,45.085C310.563,190.92,310.264,191.263,310.01,191.624z M221.049,106.564l36.099,10.188l-48.179,45.084
		c-0.338,0.314-0.635,0.658-0.889,1.018l-36.098-10.188l48.178-45.085C220.5,107.265,220.795,106.925,221.049,106.564z
		 M272.016,120.95l36.097,10.188l-48.176,45.084c-0.339,0.314-0.636,0.658-0.891,1.019l-36.098-10.19l48.179-45.083
		C271.462,121.651,271.759,121.309,272.016,120.95z M206.181,102.369l-48.176,45.082c-0.338,0.317-0.635,0.657-0.891,1.018
		l-27.168-7.667l9.729-32.717c2.973-9.995,12.53-16.974,23.245-16.974c2.246,0,4.486,0.313,6.661,0.926L206.181,102.369z
		 M394.395,179.978l-9.729,32.718l-59.788-16.876l48.179-45.084c0.336-0.314,0.632-0.658,0.888-1.019l3.979,1.124
		c6.162,1.74,11.275,5.739,14.396,11.262C395.441,167.628,396.18,173.976,394.395,179.978z M382.515,276.016h-30.802l-28.769-48.549
		h59.57V276.016z M117.323,276.016v-48.549h30.803l28.768,48.549H117.323z"/>
	<path d="M206.483,350.906l59.492,33.462c1.048,0.59,2.217,0.885,3.386,0.885c1.168,0,2.338-0.295,3.385-0.885
		c2.095-1.179,3.386-3.356,3.386-5.713v-66.928c0-2.358-1.291-4.536-3.386-5.714c-2.094-1.177-4.676-1.177-6.771,0l-59.492,33.464
		c-2.096,1.178-3.386,3.355-3.386,5.715C203.097,347.55,204.387,349.728,206.483,350.906z M223.411,345.192l39.178-22.039v44.076
		L223.411,345.192z"/>
	<path d="M243.149,409.113c0,3.633,3.04,6.598,6.771,6.598c3.729,0,6.772-2.965,6.772-6.598s-3.043-6.598-6.772-6.598
		C246.189,402.516,243.149,405.48,243.149,409.113z"/>
</g>
</svg>
