<?xml version="1.0" encoding="utf-8"?>
<!-- Generator: Adobe Illustrator 16.0.0, SVG Export Plug-In . SVG Version: 6.00 Build 0)  -->
<!DOCTYPE svg PUBLIC "-//W3C//DTD SVG 1.1//EN" "http://www.w3.org/Graphics/SVG/1.1/DTD/svg11.dtd">
<svg version="1.1" id="Capa_1" xmlns="http://www.w3.org/2000/svg" xmlns:xlink="http://www.w3.org/1999/xlink" x="0px" y="0px"
	 width="512px" height="512px" viewBox="0 0 512 512" enable-background="new 0 0 512 512" xml:space="preserve">
<g>
	<path d="M147.715,427.809h-33.018c-11.189,0-20.293-9.998-20.293-22.286v-35.156h27.711v14.193c0,3.072,2.269,5.562,5.066,5.562
		h63.753c2.798,0,5.066-2.489,5.066-5.562v-14.193h71.235c2.799,0,5.066-2.49,5.066-5.563c0-3.074-2.268-5.564-5.066-5.564H162.912
		v-27.729h5.677c6.977,0,12.654-6.233,12.654-13.896V307.45h1.148c11.998,0,22.547-8.889,25.657-21.614l5.978-24.472
		c1.379-5.649,6.063-9.595,11.388-9.595h78.708c5.541,0,10.047,4.948,10.047,11.033v85.404c0,6.083-4.506,11.032-10.047,11.032
		H287.5c-2.797,0-5.066,2.491-5.066,5.564c0,3.072,2.27,5.563,5.066,5.563h16.621c11.127,0,20.178-9.939,20.178-22.159v-85.404
		c0-12.219-9.051-22.16-20.178-22.16h-78.708c-9.901,0-18.608,7.336-21.174,17.839l-5.977,24.472
		c-1.923,7.872-8.449,13.372-15.871,13.372h-50.388c-4.329,0-8.317-1.938-11.229-5.455c-2.912-3.519-4.29-8.061-3.879-12.794
		l7.271-83.774c1.479-17.033,14.342-29.878,29.923-29.878h34.531c2.798,0,5.066-2.49,5.066-5.563s-2.268-5.563-5.066-5.563h-24.494
		v-13.599c0-3.072-2.268-5.563-5.066-5.563s-5.066,2.49-5.066,5.563v13.601c-20.789,0.053-37.939,17.207-39.914,39.946l-7.27,83.772
		c-0.676,7.78,1.683,15.556,6.468,21.336c4.786,5.782,11.611,9.097,18.726,9.097h2.448v10.163c0,7.662,5.677,13.897,12.654,13.897
		h5.677v27.729H89.338c-2.797,0-5.065,2.491-5.065,5.564v40.719c0,18.424,13.649,33.413,30.424,33.413h33.017
		c2.798,0,5.066-2.489,5.066-5.563C152.781,430.3,150.512,427.809,147.715,427.809z M144.582,317.613V307.45h26.53v10.163
		c0,1.528-1.131,2.771-2.522,2.771h-21.485C145.713,320.384,144.582,319.141,144.582,317.613z M185.869,378.997h-53.622v-8.631
		h53.622V378.997z"/>
	<path d="M387.537,153.297h-5.329v-39.365c0-3.073-2.27-5.563-5.065-5.563h-9.391v-7.305c0-3.073-2.268-5.563-5.066-5.563
		c-2.797,0-5.064,2.49-5.064,5.563v7.305h-9.363c-2.799,0-5.066,2.49-5.066,5.563v39.365h-134.31c-2.798,0-5.065,2.49-5.065,5.563
		s2.268,5.563,5.065,5.563h178.656c16.574,0,30.059,14.809,30.059,33.01v208.089c0,12.288-9.104,22.286-20.293,22.286H167.978
		c-2.798,0-5.066,2.489-5.066,5.563c0,3.071,2.268,5.563,5.066,5.563h229.325c16.775,0,30.424-14.989,30.424-33.413V197.434
		C427.727,173.097,409.698,153.297,387.537,153.297z M353.322,119.495h18.754v33.802h-18.754V119.495z"/>
	<path d="M372.268,239.477c-13.725,0-24.891,12.262-24.891,27.336c0,15.072,11.166,27.334,24.891,27.334
		s24.892-12.262,24.892-27.334C397.159,251.738,385.992,239.477,372.268,239.477z M372.268,283.02
		c-8.137,0-14.758-7.271-14.758-16.209c0-8.938,6.621-16.208,14.758-16.208c8.139,0,14.758,7.271,14.758,16.208
		C387.025,275.749,380.406,283.02,372.268,283.02z"/>
	<path d="M285.018,206.948c2.798,0,5.065-2.489,5.065-5.563c0-3.073-2.268-5.563-5.065-5.563h-15.297
		c-2.797,0-5.065,2.489-5.065,5.563c0,3.074,2.269,5.563,5.065,5.563H285.018z"/>
	<path d="M387.895,195.822h-79.276c-2.798,0-5.065,2.489-5.065,5.563c0,3.074,2.268,5.563,5.065,5.563h79.276
		c2.799,0,5.066-2.489,5.066-5.563C392.961,198.313,390.693,195.822,387.895,195.822z"/>
</g>
</svg>
