<?xml version="1.0" encoding="utf-8"?>
<!-- Generator: Adobe Illustrator 16.0.0, SVG Export Plug-In . SVG Version: 6.00 Build 0)  -->
<!DOCTYPE svg PUBLIC "-//W3C//DTD SVG 1.1//EN" "http://www.w3.org/Graphics/SVG/1.1/DTD/svg11.dtd">
<svg version="1.1" id="Calque_1" xmlns="http://www.w3.org/2000/svg" xmlns:xlink="http://www.w3.org/1999/xlink" x="0px" y="0px"
	 width="512px" height="512px" viewBox="0 0 512 512" enable-background="new 0 0 512 512" xml:space="preserve">
<g id="Outline">
	<g>
		<path d="M443.33,155.903c-3.567,0-6.46,2.892-6.46,6.459V394.91h-35.076c-41.569,0.004-83.003,4.725-123.509,14.068
			c-5.201,1.191-10.598-0.952-13.564-5.387c23.063-14.118,49.577-21.594,76.617-21.602h76.153c3.567,0,6.46-2.893,6.46-6.459
			v-45.218c0-3.567-2.893-6.46-6.46-6.46s-6.46,2.893-6.46,6.46v38.758h-69.693c-27.645-0.026-54.823,7.123-78.878,20.748V214.04
			c0-3.568-2.893-6.46-6.46-6.46c-3.568,0-6.459,2.892-6.459,6.46v175.772c-24.055-13.624-51.234-20.771-78.879-20.741h-69.693
			V136.524h99.479c27.118,0.018,49.093,22.007,49.093,49.125c0,3.568,2.892,6.46,6.459,6.46c3.567,0,6.46-2.892,6.46-6.46
			c0-27.118,21.975-49.107,49.093-49.125h99.479v167.951c0,3.567,2.893,6.46,6.46,6.46s6.46-2.893,6.46-6.46v-174.41
			c0-3.568-2.893-6.459-6.46-6.459H311.553c-23.551,0.017-45.065,13.356-55.553,34.443c-10.488-21.087-32.002-34.426-55.553-34.443
			H94.509c-3.567,0-6.459,2.892-6.459,6.459v245.467c0,3.566,2.892,6.459,6.459,6.459h76.153
			c27.045,0.007,53.564,7.482,76.631,21.602c-2.977,4.423-8.365,6.563-13.565,5.387c-40.509-9.347-81.948-14.066-123.521-14.068
			H75.13V162.363c0-3.568-2.892-6.459-6.459-6.459s-6.459,2.892-6.459,6.459v239.006c0,3.568,2.892,6.46,6.459,6.46h41.536
			c40.591,0.007,81.049,4.616,120.601,13.739c9.267,2.14,18.957-1.011,25.193-8.19c6.234,7.183,15.927,10.333,25.193,8.19
			c39.551-9.122,80.01-13.731,120.601-13.739h41.536c3.566,0,6.459-2.892,6.459-6.46V162.363
			C449.789,158.795,446.896,155.903,443.33,155.903z"/>
		<path d="M234.832,179.242c-10.179-6.797-22.145-10.423-34.385-10.419h-73.64c-3.568,0-6.459,2.892-6.459,6.46
			c0,3.567,2.892,6.459,6.459,6.459h73.64c9.699-0.011,19.183,2.86,27.247,8.249c2.968,1.98,6.979,1.179,8.959-1.79
			c1.98-2.968,1.179-6.979-1.789-8.959H234.832z"/>
		<path d="M385.193,168.822h-73.641c-12.25-0.01-24.229,3.617-34.417,10.419c-2.968,1.98-3.769,5.992-1.789,8.959
			c1.979,2.968,5.991,3.77,8.96,1.79c8.064-5.387,17.547-8.258,27.246-8.249h73.641c3.566,0,6.459-2.892,6.459-6.459
			C391.652,171.714,388.76,168.822,385.193,168.822z"/>
		<path d="M234.832,211.54c-10.179-6.798-22.145-10.423-34.385-10.419h-73.64c-3.568,0-6.459,2.892-6.459,6.459
			c0,3.568,2.892,6.46,6.459,6.46h73.64c9.699-0.011,19.183,2.86,27.247,8.249c2.968,1.98,6.979,1.179,8.959-1.789
			c1.98-2.968,1.179-6.979-1.789-8.959H234.832z"/>
		<path d="M385.193,201.121h-73.641c-12.25-0.01-24.229,3.617-34.417,10.419c-2.968,1.98-3.769,5.992-1.789,8.959
			c1.979,2.968,5.991,3.769,8.96,1.789l0,0c8.064-5.387,17.547-8.258,27.246-8.249h73.641c3.566,0,6.459-2.892,6.459-6.46
			C391.652,204.013,388.76,201.121,385.193,201.121z"/>
		<path d="M234.832,243.838c-10.179-6.797-22.145-10.423-34.385-10.419h-73.64c-3.568,0-6.459,2.892-6.459,6.459
			s2.892,6.459,6.459,6.459h73.64c9.699-0.011,19.183,2.86,27.247,8.249c2.968,1.979,6.979,1.179,8.959-1.789
			c1.98-2.968,1.179-6.98-1.789-8.96l0,0H234.832z"/>
		<path d="M385.193,233.419h-73.641c-12.25-0.01-24.229,3.617-34.417,10.419c-2.968,1.98-3.769,5.992-1.789,8.96
			c1.979,2.968,5.991,3.769,8.96,1.789l0,0c8.064-5.387,17.547-8.258,27.246-8.249h73.641c3.566,0,6.459-2.892,6.459-6.459
			S388.76,233.419,385.193,233.419z"/>
		<path d="M234.832,276.137c-10.179-6.798-22.145-10.424-34.385-10.42h-73.64c-3.568,0-6.459,2.893-6.459,6.46
			s2.892,6.46,6.459,6.46h73.64c9.699-0.012,19.183,2.859,27.247,8.248c2.968,1.98,6.979,1.18,8.959-1.789
			c1.98-2.968,1.179-6.98-1.789-8.959H234.832z"/>
		<path d="M385.193,265.717h-73.641c-12.25-0.01-24.229,3.617-34.417,10.42c-2.968,1.979-3.769,5.991-1.789,8.959
			c1.979,2.969,5.991,3.77,8.96,1.789c8.064-5.387,17.547-8.258,27.246-8.248h73.641c3.566,0,6.459-2.893,6.459-6.46
			S388.76,265.717,385.193,265.717z"/>
		<path d="M234.832,308.436c-10.179-6.799-22.145-10.424-34.385-10.42h-73.64c-3.568,0-6.459,2.893-6.459,6.459
			c0,3.567,2.892,6.46,6.459,6.46h73.64c9.699-0.011,19.183,2.86,27.247,8.249c2.968,1.98,6.979,1.179,8.959-1.789
			c1.98-2.969,1.179-6.98-1.789-8.959l0,0H234.832z"/>
		<path d="M385.193,298.016h-73.641c-12.25-0.01-24.229,3.615-34.417,10.42c-2.968,1.979-3.769,5.99-1.789,8.959
			c1.979,2.968,5.991,3.77,8.96,1.789c8.064-5.387,17.547-8.258,27.246-8.249h73.641c3.566,0,6.459-2.893,6.459-6.46
			C391.652,300.908,388.76,298.016,385.193,298.016z"/>
		<path d="M200.447,330.313h-73.64c-3.568,0-6.459,2.893-6.459,6.46c0,3.566,2.892,6.459,6.459,6.459h73.64
			c9.699-0.011,19.183,2.86,27.247,8.249c2.968,1.979,6.979,1.179,8.959-1.789s1.179-6.979-1.789-8.96l0,0
			C224.676,333.93,212.698,330.303,200.447,330.313z"/>
		<path d="M385.193,330.313h-73.641c-12.25-0.009-24.229,3.616-34.417,10.419c-2.968,1.98-3.769,5.992-1.789,8.96
			s5.991,3.769,8.96,1.789l0,0c8.064-5.386,17.547-8.259,27.246-8.249h73.641c3.566,0,6.459-2.893,6.459-6.459
			C391.652,333.206,388.76,330.313,385.193,330.313z"/>
	</g>
</g>
</svg>
